<svg xmlns="http://www.w3.org/2000/svg" xmlns:xlink="http://www.w3.org/1999/xlink" width="238" height="60" viewBox="0 0 238 60">
  <defs>
    <clipPath id="clip-path">
      <rect id="Rectangle_59" data-name="Rectangle 59" width="238" height="60" transform="translate(198 43)" fill="#fff"/>
    </clipPath>
  </defs>
  <g id="Group_37" data-name="Group 37" transform="translate(-198 -43)" clip-path="url(#clip-path)">
    <path id="Path_6462" data-name="Path 6462" d="M432.2,82.506V63.831h3.985V82.506ZM400,75.339v7.167h-3.984V63.831h5.474q3.834,0,5.669,1.387a5.5,5.5,0,0,1,.924,7.139,6.011,6.011,0,0,1-2.585,2.011q4.241,6.3,5.526,8.138H406.6l-4.488-7.167Zm0-3.22h1.285a4.939,4.939,0,0,0,2.79-.628,2.232,2.232,0,0,0,.9-1.969,2.034,2.034,0,0,0-.918-1.889,5.606,5.606,0,0,0-2.847-.562H400v5.049ZM369.212,82.506h-3.984V67.126h-5.1v-3.3H374.32v3.3h-5.1v15.38Zm-29.978,0H328.41V63.831h10.824v3.244h-6.84v4.1h6.364V74.42h-6.364v4.814h6.84ZM303.215,63.831h4.022l-6.388,18.675H296.5l-6.378-18.675h4.027l3.537,11.114q.293.984.609,2.292c.209.872.343,1.481.39,1.819a31.887,31.887,0,0,1,.967-4.111Z" fill="#fff" fill-rule="evenodd"/>
    <path id="Path_6463" data-name="Path 6463" d="M240.635,54.043l-4.769,10.575L215.45,57.7,208.9,43.168Z" fill="#e48189"/>
    <path id="Path_6464" data-name="Path 6464" d="M253.164,46.5l-4.6-2a3.367,3.367,0,0,0-4.407,1.678l-3.551,7.866-4.77,10.575L227.2,83.767,215.45,57.7,208.9,43.168l-10.71,4.65,24.642,55.346h8.754l23.3-52.327A3.28,3.28,0,0,0,253.164,46.5Z" fill="#fff"/>
  </g>
</svg>
